<svg height="200px" width="200px" version="1.1" id="Layer_1" xmlns="http://www.w3.org/2000/svg" xmlns:xlink="http://www.w3.org/1999/xlink" viewBox="0 0 512 512" xml:space="preserve" fill="#000000"><g id="SVGRepo_bgCarrier" stroke-width="0"></g><g id="SVGRepo_tracerCarrier" stroke-linecap="round" stroke-linejoin="round"></g><g id="SVGRepo_iconCarrier"> <polygon style="fill:#8AE9FF;" points="256,213.137 501.801,432.471 501.801,298.861 256,79.527 10.199,298.861 10.199,432.471 "></polygon> <g> <path style="fill:#248A9C;" d="M501.803,442.67c-2.458,0-4.886-0.888-6.793-2.59L256,226.806L16.99,440.08 c-2.999,2.678-7.29,3.344-10.96,1.698C2.361,440.134,0,436.49,0,432.471v-133.61c0-2.907,1.24-5.675,3.409-7.61L249.209,71.918 c3.869-3.452,9.713-3.452,13.581,0l245.801,219.334c2.168,1.934,3.409,4.703,3.409,7.61v133.61c0,4.02-2.361,7.665-6.03,9.308 C504.633,442.378,503.212,442.67,501.803,442.67z M256,202.938c2.428,0,4.857,0.864,6.791,2.59l228.811,204.174V303.429L256,93.196 L20.398,303.429V409.7l228.811-204.174C251.144,203.802,253.572,202.938,256,202.938z"></path> <path style="fill:#248A9C;" d="M81.597,290.231c-2.806,0-5.598-1.15-7.614-3.409c-3.75-4.203-3.383-10.65,0.82-14.401l7.139-6.37 c4.203-3.749,10.651-3.382,14.4,0.82c3.75,4.203,3.383,10.65-0.82,14.401l-7.139,6.37 C86.439,289.377,84.014,290.231,81.597,290.231z"></path> <path style="fill:#248A9C;" d="M115.254,260.197c-2.806,0-5.598-1.15-7.614-3.409c-3.75-4.203-3.383-10.65,0.82-14.4 l140.749-125.594c4.202-3.75,10.65-3.383,14.4,0.819c3.751,4.203,3.383,10.65-0.819,14.4L122.042,257.608 C120.097,259.343,117.671,260.197,115.254,260.197z"></path> </g> </g></svg>