<svg viewBox="-4.8 -4.8 57.60 57.60" data-name="Layer 1" xmlns="http://www.w3.org/2000/svg" fill="#000000" transform="rotate(0)"><g id="SVGRepo_bgCarrier" stroke-width="0" transform="translate(0,0), scale(1)"><path transform="translate(-4.8, -4.8), scale(3.5999999999999996)" fill="#ceffff" d="M9.166.33a2.25 2.25 0 00-2.332 0l-5.25 3.182A2.25 2.25 0 00.5 5.436v5.128a2.25 2.25 0 001.084 1.924l5.25 3.182a2.25 2.25 0 002.332 0l5.25-3.182a2.25 2.25 0 001.084-1.924V5.436a2.25 2.25 0 00-1.084-1.924L9.166.33z" strokewidth="0"></path></g><g id="SVGRepo_iconCarrier"> <title>pisces</title> <g fill="#000000" class="nc-icon-wrapper"> <path d="M13 21a10 10 0 0 1-8.849-5.349A19.472 19.472 0 0 0 4 18c0 11.25 9 19 9 19s9-7.75 9-19a19.472 19.472 0 0 0-.151-2.349A10 10 0 0 1 13 21z" opacity=".3"> </path> <path d="M35 27a10 10 0 0 1 8.849 5.349A19.472 19.472 0 0 0 44 30c0-11.25-9-19-9-19s-9 7.75-9 19a19.472 19.472 0 0 0 .151 2.349A10 10 0 0 1 35 27z" opacity=".3"> </path> <path d="M13 37s9-7.75 9-19a16.1 16.1 0 0 0-9-15 16.1 16.1 0 0 0-9 15c0 11.25 9 19 9 19z" fill="none" stroke="#000000" stroke-linecap="square" stroke-miterlimit="10" stroke-width="2"> </path> <path d="M13 36v2a8 8 0 0 1-8 8v-2a8 8 0 0 1 8-8z" transform="rotate(180 9 41)"> </path> <path d="M13 36a8 8 0 0 1 8 8v2a8 8 0 0 1-8-8v-2z"> </path> <path d="M43 2v2a8 8 0 0 1-8 8v-2a8 8 0 0 1 8-8z"> </path> <path d="M27 2a8 8 0 0 1 8 8v2a8 8 0 0 1-8-8V2z" transform="rotate(180 31 7)"> </path> <circle cx="11" cy="11" r="2"> </circle> <path d="M4.151 15.651a9.994 9.994 0 0 0 17.7 0" fill="none" stroke="#000000" stroke-miterlimit="10" stroke-width="2"> </path> <path d="M3 18v12h5c-3-5-4-12-4-12z"> </path> <path d="M35 11s-9 7.75-9 19a16.1 16.1 0 0 0 9 15 16.1 16.1 0 0 0 9-15c0-11.25-9-19-9-19z" fill="none" stroke="#000000" stroke-linecap="square" stroke-miterlimit="10" stroke-width="2"> </path> <circle cx="37" cy="37" r="2"> </circle> <path d="M43.849 32.349a9.994 9.994 0 0 0-17.7 0" fill="none" stroke="#000000" stroke-miterlimit="10" stroke-width="2"> </path> <path d="M45 30V18h-5c3 5 4 12 4 12z"> </path> </g> </g></svg>